<svg width="120" height="120" viewBox="0 0 120 120" fill="none" xmlns="http://www.w3.org/2000/svg">
<path d="M22.2305 84.1602C22.2305 83.4648 21.8555 82.9062 21.1055 82.4844C20.957 82.4062 20.5 82.1992 19.7344 81.8633C19.0391 81.5664 18.6016 81.2617 18.4219 80.9492C18.3281 80.7773 18.2812 80.5938 18.2812 80.3984C18.2812 79.875 18.5352 79.5117 19.043 79.3086C19.2617 79.2227 19.5039 79.1797 19.7695 79.1797C20.4258 79.1797 20.9258 79.4023 21.2695 79.8477C21.4961 80.1523 21.6055 80.5234 21.5977 80.9609H21.9492V78.9102C21.7617 78.9102 21.6523 78.9688 21.6211 79.0859C21.6055 79.1406 21.5977 79.2148 21.5977 79.3086C21.043 79.0039 20.418 78.8516 19.7227 78.8516C18.8789 78.8516 18.2227 79.0859 17.7539 79.5547C17.4414 79.8828 17.2852 80.2656 17.2852 80.7031C17.2852 81.3594 17.6523 81.8945 18.3867 82.3086C18.5195 82.3789 18.9648 82.5781 19.7227 82.9062C20.4258 83.2188 20.8711 83.5352 21.0586 83.8555C21.1602 84.0352 21.2109 84.2305 21.2109 84.4414C21.2109 84.9883 20.9453 85.3828 20.4141 85.625C20.1641 85.7344 19.8867 85.7891 19.582 85.7891C18.3867 85.7734 17.7227 85.043 17.5898 83.5977H17.2383V86.0234C17.4258 86.0234 17.5352 85.9688 17.5664 85.8594C17.582 85.7969 17.5898 85.6836 17.5898 85.5195C18.1914 85.918 18.875 86.1172 19.6406 86.1172C20.5391 86.1172 21.2344 85.875 21.7266 85.3906C22.0625 85.0469 22.2305 84.6367 22.2305 84.1602ZM25.7344 81.1953C26.2812 81.1953 26.6445 81.4258 26.8242 81.8867C26.8867 82.0352 26.918 82.1953 26.918 82.3672C26.918 82.7578 26.7305 82.9961 26.3555 83.082C26.1602 83.1211 25.8828 83.1367 25.5234 83.1289L24.2812 83.0938C24.3203 82.1953 24.6133 81.6094 25.1602 81.3359C25.3398 81.2422 25.5312 81.1953 25.7344 81.1953ZM27.7734 84.875L27.4805 84.7695C27.207 85.3633 26.7656 85.6992 26.1562 85.7773C26.0781 85.7852 26.0039 85.7891 25.9336 85.7891C25.1133 85.7891 24.5977 85.3008 24.3867 84.3242C24.3242 84.0508 24.2891 83.75 24.2812 83.4219L25.6875 83.4453C26.6406 83.4609 27.2539 83.3711 27.5273 83.1758C27.7383 83.0195 27.8438 82.7969 27.8438 82.5078C27.8438 81.9766 27.5742 81.5547 27.0352 81.2422C26.6523 81.0156 26.2109 80.9023 25.7109 80.9023C24.7344 80.9023 24.0352 81.3086 23.6133 82.1211C23.3945 82.543 23.2852 83.0195 23.2852 83.5508C23.2852 84.5195 23.6328 85.2383 24.3281 85.707C24.7422 85.9805 25.2148 86.1172 25.7461 86.1172C26.5898 86.1172 27.2109 85.8125 27.6094 85.2031C27.6719 85.0938 27.7266 84.9844 27.7734 84.875ZM34.2891 85.707H33.7031V81.0195H31.8633V81.3125H32.8242V83.8438C32.8242 84.5469 32.5781 85.0625 32.0859 85.3906C31.8672 85.5391 31.6406 85.6133 31.4062 85.6133C30.7656 85.6133 30.3945 85.2852 30.293 84.6289C30.2773 84.5195 30.2695 84.4023 30.2695 84.2773V81.0195H28.4883V81.3125H29.3906V84.1016C29.3984 85.4375 29.957 86.1094 31.0664 86.1172C31.6523 86.1172 32.1328 85.8789 32.5078 85.4023C32.6484 85.2227 32.7617 85.0234 32.8477 84.8047L32.9297 86H34.582C34.582 85.8281 34.5234 85.7344 34.4062 85.7188C34.375 85.7109 34.3359 85.707 34.2891 85.707ZM37.5352 85.707H37.0078V83.1758C37.0312 82.4492 37.2891 81.9258 37.7812 81.6055C37.9922 81.4727 38.207 81.4062 38.4258 81.4062C38.9023 81.4062 39.2266 81.6289 39.3984 82.0742C39.4688 82.2539 39.5039 82.457 39.5039 82.6836V85.0039C39.5039 85.3633 39.4023 85.5781 39.1992 85.6484C39.082 85.6875 38.8906 85.707 38.625 85.707V86H41.2617C41.2617 85.8281 41.2031 85.7344 41.0859 85.7188C41.0547 85.7109 41.0156 85.707 40.9688 85.707H40.3828V82.8008C40.3828 82.0195 40.1133 81.4609 39.5742 81.125C39.3242 80.9766 39.0547 80.9023 38.7656 80.9023C38.1875 80.9023 37.7109 81.1328 37.3359 81.5938C37.1953 81.7734 37.082 81.9727 36.9961 82.1914L36.9492 81.0195H35.25V81.3125H36.1289V85.0039C36.1289 85.3633 36.0273 85.5781 35.8242 85.6484C35.707 85.6875 35.5156 85.707 35.25 85.707V86H37.8281C37.8281 85.8281 37.7695 85.7344 37.6523 85.7188C37.6211 85.7109 37.582 85.707 37.5352 85.707ZM43.0781 82.7539C43.0938 81.7227 43.4844 81.2031 44.25 81.1953C45.0156 81.2109 45.4023 81.7305 45.4102 82.7539C45.3945 83.8164 45.0078 84.3516 44.25 84.3594C43.4766 84.3438 43.0859 83.8086 43.0781 82.7539ZM44.2617 80.9023C43.5586 80.9023 43 81.1289 42.5859 81.582C42.2891 81.918 42.1406 82.3125 42.1406 82.7656C42.1406 83.3594 42.4297 83.8516 43.0078 84.2422C43.0625 84.2812 43.1172 84.3164 43.1719 84.3477C42.6719 84.3477 42.3594 84.5625 42.2344 84.9922C42.2109 85.0938 42.1992 85.1953 42.1992 85.2969C42.207 85.7109 42.375 86.0195 42.7031 86.2227C42.4453 86.4961 42.3164 86.7734 42.3164 87.0547C42.3164 87.4844 42.5703 87.8047 43.0781 88.0156C43.3984 88.1562 43.793 88.2266 44.2617 88.2266C45.4492 88.2266 46.2344 87.9375 46.6172 87.3594C46.7422 87.1641 46.8047 86.957 46.8047 86.7383C46.8047 86.0664 46.418 85.6797 45.6445 85.5781C45.543 85.5625 45.4375 85.5547 45.3281 85.5547L43.1953 85.5078C42.8359 85.4844 42.6523 85.3281 42.6445 85.0391C42.6445 84.8359 42.7734 84.707 43.0312 84.6523C43.0859 84.6445 43.1445 84.6406 43.207 84.6406L44.2383 84.6523C44.9336 84.6523 45.4883 84.418 45.9023 83.9492C46.1992 83.6133 46.3477 83.2148 46.3477 82.7539C46.3398 82.168 46.1133 81.6992 45.668 81.3477C45.7383 81.0977 45.8711 80.9492 46.0664 80.9023C46.0977 80.8945 46.1289 80.8906 46.1602 80.8906C46.2695 80.8906 46.3867 80.9492 46.5117 81.0664C46.5977 81.1445 46.6758 81.1836 46.7461 81.1836C46.9414 81.1367 47.0547 81.0117 47.0859 80.8086C47.0859 80.5664 46.9727 80.4023 46.7461 80.3164C46.6602 80.2852 46.5742 80.2695 46.4883 80.2695C46.1211 80.2695 45.8242 80.4336 45.5977 80.7617C45.5117 80.8867 45.4453 81.0234 45.3984 81.1719C45.0469 80.9922 44.668 80.9023 44.2617 80.9023ZM44.2617 87.9219C43.4883 87.9219 43 87.7188 42.7969 87.3125C42.7422 87.2031 42.7148 87.0938 42.7148 86.9844C42.7227 86.7734 42.8164 86.5625 42.9961 86.3516C43.1523 86.3828 43.2812 86.3984 43.3828 86.3984L45.1875 86.4219C45.7734 86.4297 46.1133 86.5625 46.207 86.8203C46.2305 86.8828 46.2422 86.9609 46.2422 87.0547C46.2422 87.3984 45.9219 87.6484 45.2812 87.8047C44.9688 87.8828 44.6289 87.9219 44.2617 87.9219ZM50.5312 86C50.5312 85.8281 50.4688 85.7305 50.3438 85.707C50.3047 85.6992 50.2656 85.6953 50.2266 85.6953H49.6055V82.543H53.2031V85.6953H52.2656V86H55.1367C55.1367 85.8281 55.0742 85.7305 54.9492 85.707C54.9102 85.6992 54.8711 85.6953 54.832 85.6953H54.2109V79.2734H55.1367V78.9688H52.2656V79.2734H53.2031V82.2031H49.6055V79.2734H50.5312V78.9688H47.6602V79.2734H48.5977V85.6953H47.6602V86H50.5312ZM56.8125 87.8633C56.6875 87.8633 56.5938 87.7695 56.5312 87.582C56.4453 87.3477 56.3633 87.2031 56.2852 87.1484C56.2148 87.1016 56.1328 87.0781 56.0391 87.0781C55.7891 87.0781 55.6445 87.1875 55.6055 87.4062C55.5977 87.4375 55.5938 87.4648 55.5938 87.4883C55.5938 87.7852 55.7656 88 56.1094 88.1328C56.2656 88.1953 56.4297 88.2266 56.6016 88.2266C57.2188 88.2266 57.7539 87.8477 58.207 87.0898C58.3945 86.7852 58.5742 86.4219 58.7461 86L60.4805 81.7227C60.5586 81.5039 60.6445 81.3789 60.7383 81.3477C60.793 81.332 60.8555 81.3242 60.9258 81.3242C61.082 81.3242 61.1719 81.2812 61.1953 81.1953C61.2109 81.1484 61.2188 81.0898 61.2188 81.0195H59.4375V81.3242H60.293L58.793 85.0742L57.1875 81.3242H57.9727V81.0195H55.6875V81.3242H56.2617L58.3711 86C57.9336 87.0312 57.5234 87.6289 57.1406 87.793C57.0312 87.8398 56.9219 87.8633 56.8125 87.8633ZM67.3125 85.707H66.7266V81.0195H64.8867V81.3125H65.8477V83.8438C65.8477 84.5469 65.6016 85.0625 65.1094 85.3906C64.8906 85.5391 64.6641 85.6133 64.4297 85.6133C63.7891 85.6133 63.418 85.2852 63.3164 84.6289C63.3008 84.5195 63.293 84.4023 63.293 84.2773V81.0195H61.5117V81.3125H62.4141V84.1016C62.4219 85.4375 62.9805 86.1094 64.0898 86.1172C64.6758 86.1172 65.1562 85.8789 65.5312 85.4023C65.6719 85.2227 65.7852 85.0234 65.8711 84.8047L65.9531 86H67.6055C67.6055 85.8281 67.5469 85.7344 67.4297 85.7188C67.3984 85.7109 67.3594 85.707 67.3125 85.707ZM70.5586 85.707H70.0312V83.1758C70.0547 82.4492 70.3125 81.9258 70.8047 81.6055C71.0156 81.4727 71.2305 81.4062 71.4492 81.4062C71.9258 81.4062 72.25 81.6289 72.4219 82.0742C72.4922 82.2539 72.5273 82.457 72.5273 82.6836V85.0039C72.5273 85.3633 72.4258 85.5781 72.2227 85.6484C72.1055 85.6875 71.9141 85.707 71.6484 85.707V86H74.2852C74.2852 85.8281 74.2266 85.7344 74.1094 85.7188C74.0781 85.7109 74.0391 85.707 73.9922 85.707H73.4062V82.8008C73.4062 82.0195 73.1367 81.4609 72.5977 81.125C72.3477 80.9766 72.0781 80.9023 71.7891 80.9023C71.2109 80.9023 70.7344 81.1328 70.3594 81.5938C70.2188 81.7734 70.1055 81.9727 70.0195 82.1914L69.9727 81.0195H68.2734V81.3125H69.1523V85.0039C69.1523 85.3633 69.0508 85.5781 68.8477 85.6484C68.7305 85.6875 68.5391 85.707 68.2734 85.707V86H70.8516C70.8516 85.8281 70.793 85.7344 70.6758 85.7188C70.6445 85.7109 70.6055 85.707 70.5586 85.707ZM76.3711 79.1562C76.3711 78.7344 76.2148 78.4844 75.9023 78.4062C75.8398 78.3906 75.7812 78.3828 75.7266 78.3828C75.4766 78.3828 75.3047 78.5 75.2109 78.7344C75.1797 78.8125 75.1641 78.8906 75.1641 78.9688C75.1641 79.2188 75.2891 79.3906 75.5391 79.4844C75.5781 79.4922 75.6094 79.5 75.6328 79.5078C75.8047 79.5547 75.8945 79.6211 75.9023 79.707C75.8945 79.918 75.7227 80.1992 75.3867 80.5508L75.6328 80.7266C76.1094 80.2109 76.3555 79.6875 76.3711 79.1562ZM79.0664 85.8008C79.6055 85.8008 79.9688 85.6367 80.1562 85.3086C80.2266 85.1914 80.2617 85.0625 80.2617 84.9219C80.2617 84.5938 80.0234 84.3125 79.5469 84.0781C79.4453 84.0234 79.2773 83.9453 79.043 83.8438C78.4023 83.5781 77.9766 83.3281 77.7656 83.0938C77.5391 82.8359 77.4258 82.5352 77.4258 82.1914C77.4258 81.6523 77.7227 81.2734 78.3164 81.0547C78.5898 80.9531 78.8867 80.9023 79.207 80.9023C79.7227 80.9023 80.168 81.0117 80.543 81.2305C80.543 81.0039 80.5977 80.875 80.707 80.8438C80.7539 80.8359 80.8047 80.832 80.8594 80.832V82.2969H80.5547C80.5391 81.5781 80.1406 81.2148 79.3594 81.207C78.7734 81.207 78.4102 81.3789 78.2695 81.7227C78.2305 81.8164 78.2109 81.9141 78.2109 82.0156C78.2109 82.3516 78.4531 82.6367 78.9375 82.8711C79.0469 82.9258 79.2188 83 79.4531 83.0938C80.0859 83.3516 80.5078 83.5977 80.7188 83.832C80.9453 84.082 81.0586 84.3789 81.0586 84.7227C81.0586 85.3555 80.7227 85.7773 80.0508 85.9883C79.793 86.0742 79.5117 86.1172 79.207 86.1172C78.6445 86.1094 78.1562 85.9688 77.7422 85.6953C77.7422 85.8984 77.6914 86.0156 77.5898 86.0469C77.543 86.0547 77.4883 86.0586 77.4258 86.0586V84.2773H77.7539C77.7695 85.2852 78.207 85.793 79.0664 85.8008ZM87.457 80.5625C87.457 79.9688 87.1758 79.5273 86.6133 79.2383C86.2461 79.0586 85.8047 78.9688 85.2891 78.9688H81.9961V79.2734H82.9336V85.6953H81.9961V86H85.3242C86.332 86 87.0703 85.6797 87.5391 85.0391C87.7812 84.7031 87.9023 84.3359 87.9023 83.9375C87.9023 83.3125 87.625 82.8281 87.0703 82.4844C86.8125 82.3359 86.5156 82.2305 86.1797 82.168C86.7422 81.957 87.1289 81.6016 87.3398 81.1016C87.418 80.9141 87.457 80.7344 87.457 80.5625ZM85.0078 79.2734C85.8125 79.2734 86.2695 79.6289 86.3789 80.3398C86.3945 80.4414 86.4023 80.5469 86.4023 80.6562C86.4023 81.1641 86.2031 81.5469 85.8047 81.8047C85.5703 81.9531 85.2969 82.0273 84.9844 82.0273H83.9414V79.2734H85.0078ZM85.207 82.3438C85.918 82.3438 86.3945 82.6445 86.6367 83.2461C86.7305 83.4648 86.7773 83.7031 86.7773 83.9609C86.7773 84.5625 86.582 85.0312 86.1914 85.3672C85.9336 85.5859 85.625 85.6953 85.2656 85.6953H83.9414V82.3438H85.207ZM91.207 85.707H90.5742V78.3828H88.8164V78.6758H89.6953V85.0039C89.6953 85.3633 89.5938 85.5781 89.3906 85.6484C89.2734 85.6875 89.082 85.707 88.8164 85.707V86H91.5C91.5 85.8281 91.4414 85.7344 91.3242 85.7188C91.293 85.7109 91.2539 85.707 91.207 85.707ZM93.2812 83.5039C93.2812 82.293 93.6133 81.5547 94.2773 81.2891C94.4492 81.2266 94.6289 81.1953 94.8164 81.1953C95.6836 81.1953 96.1875 81.7422 96.3281 82.8359C96.3516 83.0234 96.3633 83.2305 96.3633 83.457C96.3633 84.7695 96.0039 85.5391 95.2852 85.7656C95.1445 85.8047 95 85.8242 94.8516 85.8242C94.0625 85.8242 93.5664 85.3555 93.3633 84.418C93.3086 84.1445 93.2812 83.8398 93.2812 83.5039ZM94.8516 80.9023C94.1016 80.9023 93.4766 81.1602 92.9766 81.6758C92.5156 82.1523 92.2852 82.7461 92.2852 83.457C92.2852 84.4414 92.6445 85.1797 93.3633 85.6719C93.8008 85.9688 94.2852 86.1172 94.8164 86.1172C95.5664 86.1172 96.1875 85.8516 96.6797 85.3203C97.1328 84.8359 97.3594 84.2305 97.3594 83.5039C97.3594 82.5195 96.9961 81.7891 96.2695 81.3125C95.8398 81.0391 95.3672 80.9023 94.8516 80.9023ZM99.3516 82.7539C99.3672 81.7227 99.7578 81.2031 100.523 81.1953C101.289 81.2109 101.676 81.7305 101.684 82.7539C101.668 83.8164 101.281 84.3516 100.523 84.3594C99.75 84.3438 99.3594 83.8086 99.3516 82.7539ZM100.535 80.9023C99.832 80.9023 99.2734 81.1289 98.8594 81.582C98.5625 81.918 98.4141 82.3125 98.4141 82.7656C98.4141 83.3594 98.7031 83.8516 99.2812 84.2422C99.3359 84.2812 99.3906 84.3164 99.4453 84.3477C98.9453 84.3477 98.6328 84.5625 98.5078 84.9922C98.4844 85.0938 98.4727 85.1953 98.4727 85.2969C98.4805 85.7109 98.6484 86.0195 98.9766 86.2227C98.7188 86.4961 98.5898 86.7734 98.5898 87.0547C98.5898 87.4844 98.8438 87.8047 99.3516 88.0156C99.6719 88.1562 100.066 88.2266 100.535 88.2266C101.723 88.2266 102.508 87.9375 102.891 87.3594C103.016 87.1641 103.078 86.957 103.078 86.7383C103.078 86.0664 102.691 85.6797 101.918 85.5781C101.816 85.5625 101.711 85.5547 101.602 85.5547L99.4688 85.5078C99.1094 85.4844 98.9258 85.3281 98.918 85.0391C98.918 84.8359 99.0469 84.707 99.3047 84.6523C99.3594 84.6445 99.418 84.6406 99.4805 84.6406L100.512 84.6523C101.207 84.6523 101.762 84.418 102.176 83.9492C102.473 83.6133 102.621 83.2148 102.621 82.7539C102.613 82.168 102.387 81.6992 101.941 81.3477C102.012 81.0977 102.145 80.9492 102.34 80.9023C102.371 80.8945 102.402 80.8906 102.434 80.8906C102.543 80.8906 102.66 80.9492 102.785 81.0664C102.871 81.1445 102.949 81.1836 103.02 81.1836C103.215 81.1367 103.328 81.0117 103.359 80.8086C103.359 80.5664 103.246 80.4023 103.02 80.3164C102.934 80.2852 102.848 80.2695 102.762 80.2695C102.395 80.2695 102.098 80.4336 101.871 80.7617C101.785 80.8867 101.719 81.0234 101.672 81.1719C101.32 80.9922 100.941 80.9023 100.535 80.9023ZM100.535 87.9219C99.7617 87.9219 99.2734 87.7188 99.0703 87.3125C99.0156 87.2031 98.9883 87.0938 98.9883 86.9844C98.9961 86.7734 99.0898 86.5625 99.2695 86.3516C99.4258 86.3828 99.5547 86.3984 99.6562 86.3984L101.461 86.4219C102.047 86.4297 102.387 86.5625 102.48 86.8203C102.504 86.8828 102.516 86.9609 102.516 87.0547C102.516 87.3984 102.195 87.6484 101.555 87.8047C101.242 87.8828 100.902 87.9219 100.535 87.9219Z" fill="black"/>
<path d="M39.5 72C39.0667 72 38.7083 71.8583 38.425 71.575C38.1417 71.2917 38 70.9333 38 70.5C38 70.0667 38.1417 69.7083 38.425 69.425C38.7083 69.1417 39.0667 69 39.5 69H80.5C80.9333 69 81.2917 69.1417 81.575 69.425C81.8583 69.7083 82 70.0667 82 70.5C82 70.9333 81.8583 71.2917 81.575 71.575C81.2917 71.8583 80.9333 72 80.5 72H39.5ZM43 66C42.2 66 41.5 65.7 40.9 65.1C40.3 64.5 40 63.8 40 63V39C40 38.2 40.3 37.5 40.9 36.9C41.5 36.3 42.2 36 43 36H77C77.8 36 78.5 36.3 79.1 36.9C79.7 37.5 80 38.2 80 39V63C80 63.8 79.7 64.5 79.1 65.1C78.5 65.7 77.8 66 77 66H43ZM43 63H77V39H43V63ZM43 63V39V63Z" fill="black"/>
</svg>
