<svg width="500" height="135" viewBox="0 0 500 135" fill="none" xmlns="http://www.w3.org/2000/svg">
<path d="M28.9837 110.542C28.9837 106.505 26.8066 103.262 22.4522 100.813C21.59 100.359 18.9368 99.1573 14.4919 97.2071C10.4551 95.4834 7.91505 93.7144 6.87175 91.9001C6.32716 90.902 6.05487 89.8366 6.05487 88.7022C6.05487 85.6634 7.52954 83.5542 10.4777 82.375C11.7475 81.8763 13.1536 81.6267 14.6957 81.6267C18.506 81.6267 21.4089 82.919 23.4044 85.505C24.72 87.2734 25.3551 89.4279 25.3098 91.968H27.3506V80.062C26.262 80.062 25.6268 80.4022 25.4457 81.0821C25.3551 81.3997 25.3098 81.8305 25.3098 82.375C22.0893 80.606 18.4607 79.7218 14.4239 79.7218C9.525 79.7218 5.71524 81.0821 2.99347 83.8039C1.17916 85.7087 0.272291 87.9312 0.272291 90.4712C0.272291 94.2816 2.4036 97.3883 6.66738 99.7925C7.43839 100.201 10.0237 101.357 14.4239 103.262C18.506 105.077 21.0913 106.914 22.1799 108.773C22.7698 109.817 23.0641 110.951 23.0641 112.175C23.0641 115.35 21.5221 117.641 18.4381 119.047C16.9866 119.682 15.3761 120 13.6071 120C6.66739 119.908 2.81233 115.668 2.04074 107.277H0V121.36C1.08859 121.36 1.72374 121.043 1.90489 120.408C1.99546 120.045 2.04074 119.387 2.04074 118.434C5.53351 120.748 9.50236 121.904 13.9473 121.904C19.1638 121.904 23.2006 120.498 26.0582 117.686C28.0084 115.69 28.9837 113.309 28.9837 110.542ZM49.3267 93.3288C52.5013 93.3288 54.6106 94.6671 55.6539 97.343C56.0167 98.2052 56.1984 99.1347 56.1984 100.133C56.1984 102.4 55.1099 103.784 52.9327 104.283C51.7988 104.51 50.1883 104.6 48.1017 104.555L40.8897 104.351C41.1167 99.1347 42.8178 95.733 45.993 94.1451C47.0357 93.6011 48.147 93.3288 49.3267 93.3288ZM61.1647 114.692L59.4642 114.08C57.8763 117.527 55.3136 119.478 51.7756 119.931C51.3222 119.977 50.8914 120 50.4832 120C45.7207 120 42.7272 117.165 41.5022 111.495C41.1394 109.907 40.9356 108.161 40.8897 106.256L49.0544 106.392C54.5879 106.482 58.1486 105.961 59.7359 104.827C60.961 103.92 61.5735 102.627 61.5735 100.949C61.5735 97.8649 60.0082 95.4155 56.8789 93.6012C54.6558 92.2856 52.0932 91.6277 49.1903 91.6277C43.5209 91.6277 39.4615 93.9866 37.012 98.7039C35.7417 101.153 35.1071 103.92 35.1071 107.004C35.1071 112.628 37.1252 116.802 41.162 119.523C43.5662 121.111 46.31 121.904 49.3946 121.904C54.293 121.904 57.899 120.135 60.2126 116.597C60.5754 115.963 60.893 115.328 61.1647 114.692ZM98.9936 119.523H95.5914V92.3082H84.9099V94.0093H90.4887V108.706C90.4887 112.788 89.0599 115.781 86.2023 117.686C84.9325 118.548 83.617 118.979 82.2561 118.979C78.5369 118.979 76.3823 117.074 75.793 113.264C75.7019 112.628 75.6566 111.948 75.6566 111.222V92.3082H65.3153V94.0093H70.5539V110.202C70.5992 117.958 73.8423 121.859 80.2833 121.904C83.6849 121.904 86.4746 120.521 88.6517 117.754C89.468 116.711 90.1258 115.554 90.6251 114.284L91.1012 121.224H100.694C100.694 120.226 100.354 119.682 99.6735 119.591C99.4923 119.546 99.2653 119.523 98.9936 119.523ZM117.84 119.523H114.778V104.827C114.914 100.609 116.411 97.57 119.268 95.7104C120.493 94.9394 121.74 94.5533 123.01 94.5533C125.777 94.5533 127.66 95.8463 128.657 98.4316C129.066 99.4749 129.27 100.654 129.27 101.97V115.441C129.27 117.527 128.68 118.775 127.501 119.183C126.82 119.41 125.709 119.523 124.167 119.523V121.224H139.475C139.475 120.226 139.135 119.682 138.455 119.591C138.273 119.546 138.046 119.523 137.775 119.523H134.372V102.65C134.372 98.114 132.808 94.8709 129.678 92.9207C128.226 92.0591 126.662 91.6277 124.983 91.6277C121.627 91.6277 118.86 92.966 116.683 95.6425C115.866 96.6852 115.209 97.8423 114.71 99.112L114.438 92.3082H104.572V94.0093H109.675V115.441C109.675 117.527 109.085 118.775 107.906 119.183C107.226 119.41 106.114 119.523 104.572 119.523V121.224H119.54C119.54 120.226 119.2 119.682 118.52 119.591C118.339 119.546 118.112 119.523 117.84 119.523ZM150.021 102.378C150.112 96.3908 152.38 93.3741 156.825 93.3288C161.27 93.4194 163.515 96.4361 163.561 102.378C163.469 108.546 161.224 111.654 156.825 111.699C152.334 111.608 150.066 108.501 150.021 102.378ZM156.893 91.6277C152.811 91.6277 149.567 92.9433 147.163 95.574C145.44 97.5247 144.578 99.8151 144.578 102.446C144.578 105.893 146.256 108.751 149.613 111.019C149.93 111.245 150.248 111.449 150.565 111.631C147.663 111.631 145.848 112.878 145.122 115.373C144.986 115.963 144.918 116.552 144.918 117.142C144.963 119.546 145.939 121.337 147.844 122.517C146.347 124.104 145.599 125.714 145.599 127.347C145.599 129.842 147.073 131.702 150.021 132.926C151.88 133.742 154.171 134.151 156.893 134.151C163.787 134.151 168.346 132.473 170.568 129.116C171.294 127.983 171.657 126.78 171.657 125.51C171.657 121.609 169.412 119.364 164.921 118.775C164.332 118.684 163.719 118.639 163.084 118.639L150.701 118.366C148.615 118.231 147.549 117.323 147.503 115.645C147.503 114.465 148.252 113.717 149.749 113.4C150.066 113.354 150.406 113.332 150.769 113.332L156.757 113.4C160.794 113.4 164.014 112.039 166.418 109.317C168.141 107.367 169.003 105.054 169.003 102.378C168.958 98.9761 167.643 96.2544 165.057 94.2137C165.465 92.7622 166.236 91.9 167.37 91.6277C167.552 91.5824 167.733 91.5598 167.915 91.5598C168.549 91.5598 169.23 91.9 169.956 92.5805C170.455 93.0339 170.908 93.2609 171.317 93.2609C172.45 92.9886 173.108 92.2629 173.289 91.0837C173.289 89.6776 172.632 88.7248 171.317 88.2261C170.818 88.045 170.319 87.9538 169.82 87.9538C167.688 87.9538 165.964 88.9066 164.649 90.8115C164.15 91.5372 163.764 92.3308 163.492 93.193C161.451 92.1497 159.251 91.6277 156.893 91.6277ZM156.893 132.382C152.402 132.382 149.567 131.203 148.388 128.844C148.071 128.209 147.912 127.574 147.912 126.939C147.957 125.714 148.501 124.49 149.545 123.265C150.452 123.446 151.2 123.537 151.79 123.537L162.268 123.673C165.669 123.719 167.643 124.49 168.187 125.986C168.323 126.349 168.391 126.803 168.391 127.347C168.391 129.343 166.531 130.794 162.812 131.702C160.998 132.155 159.024 132.382 156.893 132.382ZM193.292 121.224C193.292 120.226 192.93 119.659 192.204 119.523C191.977 119.478 191.75 119.455 191.524 119.455H187.918V101.153H208.805V119.455H203.362V121.224H220.031C220.031 120.226 219.668 119.659 218.942 119.523C218.716 119.478 218.489 119.455 218.262 119.455H214.656V82.1707H220.031V80.4022H203.362V82.1707H208.805V99.1799H187.918V82.1707H193.292V80.4022H176.624V82.1707H182.067V119.455H176.624V121.224H193.292ZM229.76 132.042C229.034 132.042 228.49 131.497 228.127 130.409C227.628 129.048 227.152 128.209 226.699 127.891C226.29 127.62 225.814 127.483 225.27 127.483C223.818 127.483 222.979 128.118 222.752 129.388C222.707 129.57 222.685 129.728 222.685 129.865C222.685 131.588 223.682 132.836 225.678 133.607C226.585 133.969 227.538 134.151 228.536 134.151C232.119 134.151 235.226 131.951 237.856 127.551C238.945 125.783 239.988 123.673 240.986 121.224L251.056 96.3908C251.509 95.1205 252.008 94.3948 252.553 94.2137C252.87 94.1225 253.233 94.0772 253.641 94.0772C254.548 94.0772 255.07 93.8275 255.206 93.3288C255.296 93.0565 255.342 92.7163 255.342 92.3082H245V94.0772H249.967L241.258 115.849L231.937 94.0772H236.496V92.3082H223.229V94.0772H226.562L238.809 121.224C236.269 127.211 233.887 130.681 231.665 131.634C231.03 131.906 230.395 132.042 229.76 132.042ZM290.721 119.523H287.319V92.3082H276.637V94.0093H282.217V108.706C282.217 112.788 280.788 115.781 277.93 117.686C276.66 118.548 275.345 118.979 273.984 118.979C270.265 118.979 268.11 117.074 267.52 113.264C267.43 112.628 267.385 111.948 267.385 111.222V92.3082H257.043V94.0093H262.282V110.202C262.327 117.958 265.57 121.859 272.011 121.904C275.413 121.904 278.202 120.521 280.379 117.754C281.196 116.711 281.854 115.554 282.353 114.284L282.829 121.224H292.422C292.422 120.226 292.082 119.682 291.402 119.591C291.22 119.546 290.993 119.523 290.721 119.523ZM309.567 119.523H306.505V104.827C306.642 100.609 308.138 97.57 310.996 95.7104C312.221 94.9394 313.468 94.5533 314.738 94.5533C317.505 94.5533 319.387 95.8463 320.385 98.4316C320.793 99.4749 320.997 100.654 320.997 101.97V115.441C320.997 117.527 320.408 118.775 319.229 119.183C318.548 119.41 317.437 119.523 315.894 119.523V121.224H331.203C331.203 120.226 330.863 119.682 330.183 119.591C330.001 119.546 329.774 119.523 329.502 119.523H326.1V102.65C326.1 98.114 324.535 94.8709 321.406 92.9207C319.954 92.0591 318.389 91.6277 316.711 91.6277C313.354 91.6277 310.588 92.966 308.411 95.6425C307.594 96.6852 306.937 97.8423 306.437 99.112L306.166 92.3082H296.3V94.0093H301.403V115.441C301.403 117.527 300.813 118.775 299.634 119.183C298.954 119.41 297.842 119.523 296.3 119.523V121.224H311.268C311.268 120.226 310.928 119.682 310.248 119.591C310.066 119.546 309.84 119.523 309.567 119.523ZM343.314 81.4902C343.314 79.0413 342.406 77.5899 340.592 77.1359C340.229 77.0453 339.889 77 339.572 77C338.12 77 337.122 77.6804 336.578 79.0413C336.396 79.4948 336.306 79.9482 336.306 80.4022C336.306 81.8537 337.032 82.8511 338.483 83.3957C338.71 83.441 338.891 83.4862 339.027 83.5315C340.025 83.8038 340.546 84.1893 340.592 84.6881C340.546 85.9131 339.549 87.5457 337.598 89.587L339.027 90.6077C341.794 87.6136 343.223 84.5748 343.314 81.4902ZM358.962 120.067C362.092 120.067 364.201 119.115 365.289 117.21C365.698 116.529 365.902 115.781 365.902 114.965C365.902 113.06 364.518 111.427 361.752 110.066C361.162 109.748 360.186 109.295 358.826 108.706C355.106 107.163 352.635 105.711 351.41 104.351C350.095 102.854 349.437 101.108 349.437 99.112C349.437 95.9821 351.161 93.7823 354.608 92.5126C356.195 91.9227 357.919 91.6277 359.778 91.6277C362.772 91.6277 365.358 92.2629 367.535 93.5332C367.535 92.2176 367.852 91.4693 368.487 91.2881C368.759 91.2423 369.054 91.2196 369.372 91.2196V99.7245H367.603C367.512 95.5513 365.198 93.4421 360.663 93.3968C357.261 93.3968 355.152 94.3948 354.335 96.3908C354.109 96.9348 353.995 97.5021 353.995 98.0914C353.995 100.042 355.401 101.697 358.214 103.058C358.849 103.376 359.847 103.807 361.207 104.351C364.881 105.848 367.33 107.277 368.555 108.637C369.87 110.088 370.528 111.812 370.528 113.808C370.528 117.482 368.578 119.931 364.677 121.156C363.18 121.655 361.547 121.904 359.778 121.904C356.512 121.859 353.677 121.043 351.274 119.455C351.274 120.634 350.979 121.315 350.389 121.496C350.117 121.542 349.8 121.564 349.437 121.564V111.222H351.342C351.432 117.074 353.972 120.022 358.962 120.067ZM407.676 89.6549C407.676 86.208 406.043 83.6447 402.778 81.9669C400.646 80.9236 398.083 80.4022 395.09 80.4022H375.971V82.1707H381.414V119.455H375.971V121.224H395.294C401.145 121.224 405.431 119.364 408.153 115.645C409.558 113.694 410.261 111.563 410.261 109.25C410.261 105.621 408.651 102.809 405.431 100.813C403.934 99.9509 402.211 99.339 400.26 98.9761C403.526 97.7511 405.771 95.6877 406.996 92.7848C407.45 91.6963 407.676 90.6529 407.676 89.6549ZM393.457 82.1707C398.128 82.1707 400.782 84.2346 401.417 88.362C401.507 88.9518 401.553 89.5643 401.553 90.1989C401.553 93.1477 400.396 95.3702 398.083 96.8669C396.722 97.7285 395.135 98.1593 393.321 98.1593H387.265V82.1707H393.457ZM394.613 99.9968C398.741 99.9968 401.507 101.743 402.914 105.235C403.458 106.505 403.73 107.889 403.73 109.385C403.73 112.878 402.596 115.599 400.328 117.55C398.832 118.82 397.04 119.455 394.953 119.455H387.265V99.9968H394.613ZM429.448 119.523H425.774V77H415.568V78.7011H420.671V115.441C420.671 117.527 420.082 118.775 418.902 119.183C418.222 119.41 417.111 119.523 415.568 119.523V121.224H431.149C431.149 120.226 430.809 119.682 430.128 119.591C429.947 119.546 429.72 119.523 429.448 119.523ZM441.49 106.732C441.49 99.7019 443.418 95.4155 447.273 93.8734C448.271 93.5106 449.315 93.3288 450.403 93.3288C455.438 93.3288 458.364 96.504 459.18 102.854C459.316 103.942 459.384 105.145 459.384 106.46C459.384 114.08 457.298 118.548 453.125 119.863C452.308 120.09 451.469 120.203 450.608 120.203C446.026 120.203 443.146 117.482 441.967 112.039C441.649 110.451 441.49 108.682 441.49 106.732ZM450.608 91.6277C446.253 91.6277 442.625 93.125 439.722 96.1185C437.045 98.885 435.708 102.332 435.708 106.46C435.708 112.175 437.794 116.461 441.967 119.319C444.507 121.043 447.319 121.904 450.403 121.904C454.758 121.904 458.364 120.362 461.221 117.278C463.852 114.465 465.167 110.951 465.167 106.732C465.167 101.017 463.058 96.7763 458.84 94.0093C456.345 92.422 453.601 91.6277 450.608 91.6277ZM476.734 102.378C476.824 96.3908 479.092 93.3741 483.535 93.3288C487.982 93.4194 490.229 96.4361 490.275 102.378C490.182 108.546 487.936 111.654 483.535 111.699C479.047 111.608 476.779 108.501 476.734 102.378ZM483.604 91.6277C479.523 91.6277 476.28 92.9433 473.876 95.574C472.152 97.5247 471.291 99.8151 471.291 102.446C471.291 105.893 472.969 108.751 476.325 111.019C476.643 111.245 476.96 111.449 477.278 111.631C474.375 111.631 472.561 112.878 471.835 115.373C471.699 115.963 471.631 116.552 471.631 117.142C471.676 119.546 472.651 121.337 474.557 122.517C473.06 124.104 472.311 125.714 472.311 127.347C472.311 129.842 473.786 131.702 476.734 132.926C478.593 133.742 480.882 134.151 483.604 134.151C490.502 134.151 495.059 132.473 497.283 129.116C498.009 127.983 498.369 126.78 498.369 125.51C498.369 121.609 496.122 119.364 491.634 118.775C491.042 118.684 490.432 118.639 489.799 118.639L477.414 118.366C475.328 118.231 474.262 117.323 474.216 115.645C474.216 114.465 474.965 113.717 476.462 113.4C476.779 113.354 477.119 113.332 477.482 113.332L483.471 113.4C487.506 113.4 490.728 112.039 493.132 109.317C494.856 107.367 495.715 105.054 495.715 102.378C495.669 98.9761 494.357 96.2544 491.767 94.2137C492.18 92.7622 492.952 91.9 494.084 91.6277C494.264 91.5824 494.444 91.5598 494.63 91.5598C495.262 91.5598 495.942 91.9 496.668 92.5805C497.167 93.0339 497.62 93.2609 498.032 93.2609C499.164 92.9886 499.82 92.2629 500 91.0837C500 89.6776 499.344 88.7248 498.032 88.2261C497.533 88.045 497.033 87.9538 496.534 87.9538C494.403 87.9538 492.679 88.9066 491.361 90.8115C490.862 91.5372 490.478 92.3308 490.206 93.193C488.162 92.1497 485.962 91.6277 483.604 91.6277ZM483.604 132.382C479.115 132.382 476.28 131.203 475.101 128.844C474.783 128.209 474.625 127.574 474.625 126.939C474.67 125.714 475.214 124.49 476.257 123.265C477.165 123.446 477.913 123.537 478.502 123.537L488.981 123.673C492.383 123.719 494.357 124.49 494.897 125.986C495.036 126.349 495.106 126.803 495.106 127.347C495.106 129.343 493.242 130.794 489.526 131.702C487.709 132.155 485.735 132.382 483.604 132.382Z" fill="white"/>
<path d="M213.727 65.4545C212.939 65.4545 212.288 65.1969 211.773 64.6818C211.258 64.1667 211 63.5151 211 62.7273C211 61.9395 211.258 61.2878 211.773 60.7727C212.288 60.2576 212.939 60 213.727 60H288.273C289.061 60 289.712 60.2576 290.227 60.7727C290.742 61.2878 291 61.9395 291 62.7273C291 63.5151 290.742 64.1667 290.227 64.6818C289.712 65.1969 289.061 65.4545 288.273 65.4545H213.727ZM220.091 54.5455C218.636 54.5455 217.364 54 216.273 52.9091C215.182 51.8182 214.636 50.5455 214.636 49.0909V5.45455C214.636 4 215.182 2.72728 216.273 1.63637C217.364 0.545457 218.636 0 220.091 0H281.909C283.364 0 284.636 0.545457 285.727 1.63637C286.818 2.72728 287.364 4 287.364 5.45455V49.0909C287.364 50.5455 286.818 51.8182 285.727 52.9091C284.636 54 283.364 54.5455 281.909 54.5455H220.091ZM220.091 49.0909H281.909V5.45455H220.091V49.0909ZM220.091 49.0909V5.45455V49.0909Z" fill="white"/>
</svg>
